<svg width="25" height="25" viewBox="0 0 25 25" fill="none" xmlns="http://www.w3.org/2000/svg">
<path d="M24.6339 22.8791L18.097 16.3798C19.4793 14.6554 20.3058 12.4709 20.3058 10.0943C20.3058 4.51947 15.7602 0 10.1529 0C4.54551 0 0 4.51947 0 10.0943C0 15.6694 4.54568 20.1888 10.1529 20.1888C12.4692 20.1888 14.6037 19.4171 16.3121 18.119L22.8669 24.636C23.111 24.8786 23.4307 25 23.7504 25C24.0701 25 24.3898 24.8786 24.6339 24.636C25.122 24.1507 25.122 23.3643 24.6339 22.8791ZM2.33402 10.0943C2.33402 5.80107 5.83471 2.32067 10.1529 2.32067C14.4712 2.32067 17.9718 5.80107 17.9718 10.0943C17.9718 14.3878 14.4712 17.8683 10.1529 17.8683C5.83471 17.8683 2.33402 14.3878 2.33402 10.0943ZM5.96415 6.21736C5.70317 6.07701 5.3774 6.17371 5.23635 6.43316C4.64888 7.51364 4.29093 8.68627 4.17239 9.91876C4.14408 10.2123 4.36058 10.473 4.6558 10.5011C4.67321 10.5027 4.69048 10.5035 4.70764 10.5035C4.9812 10.5035 5.21498 10.2967 5.24156 10.0204C5.34635 8.93107 5.66254 7.895 6.18114 6.9408C6.32222 6.68152 6.22494 6.35759 5.96415 6.21736Z" fill="#D3D2D2"/>
</svg>
